<?xml version="1.0" encoding="UTF-8"?>
<svg width="61px" height="30px" viewBox="0 0 61 30" version="1.1" xmlns="http://www.w3.org/2000/svg" xmlns:xlink="http://www.w3.org/1999/xlink">
    <!-- Generator: sketchtool 52.2 (67145) - http://www.bohemiancoding.com/sketch -->
    <title>C14145D3-8E59-4004-A62E-D19644A2B119</title>
    <desc>Created with sketchtool.</desc>
    <defs>
        <polygon id="path-1" points="0.00680384615 0.0610195513 9.93416282 0.0610195513 9.93416282 15.4455128 0.00680384615 15.4455128"></polygon>
        <polygon id="path-3" points="0 0.0892320513 8.67819794 0.0892320513 8.67819794 16.7864179 0 16.7864179"></polygon>
    </defs>
    <g id="Administrar-cuenta-de-usuario" stroke="none" stroke-width="1" fill="none" fill-rule="evenodd">
        <g id="03" transform="translate(-181.000000, -6.000000)">
            <g id="Group-11" transform="translate(181.000000, 6.000000)">
                <g id="Page-1" transform="translate(0.000000, 0.477564)">
                    <path d="M5.01251859,8.9632266 C4.91476218,8.9632266 4.82815,8.90906955 4.78455064,8.82206635 C4.71944487,8.69205032 4.77379744,8.54013686 4.89325577,8.48578429 C5.18613397,8.33387083 5.53316923,8.27971378 5.91285513,8.33387083 C6.05401538,8.35576827 6.15157628,8.47503109 6.13006987,8.61599583 C6.10817244,8.75715609 5.98890962,8.85471699 5.84774936,8.83301506 C5.56581987,8.80036442 5.31634551,8.83301506 5.11007949,8.94152468 C5.08837756,8.95227788 5.05592244,8.9632266 5.01251859,8.9632266 M7.48614679,9.6250375 C7.42104103,9.6250375 7.35593526,9.60333558 7.31253141,9.54917853 C7.12796731,9.37536763 6.88944167,9.20194776 6.63977179,9.08248942 C6.50956026,9.01738365 6.46635192,8.86547019 6.53145769,8.74620737 C6.59656346,8.61599583 6.74847692,8.57259199 6.86773974,8.63769776 C7.17156667,8.78961122 7.44274295,8.98492853 7.6707109,9.20194776 C7.76827179,9.29950865 7.76827179,9.46237083 7.6707109,9.55993173 C7.61616282,9.59238686 7.55105705,9.6250375 7.48614679,9.6250375 M4.6543391,10.4604638 C4.57848013,10.4604638 4.50262115,10.4278131 4.44826859,10.3627074 C4.25295128,10.0915311 4.14463718,9.83110801 4.14463718,9.55993173 C4.14463718,9.47312404 4.15539038,9.38631635 4.17709231,9.29950865 C4.20974295,9.16929712 4.35051218,9.08248942 4.49167244,9.12608878 C4.62188397,9.15854391 4.70869167,9.29950865 4.66528782,9.4404734 C4.6543391,9.48407276 4.6435859,9.5274766 4.6435859,9.57068494 C4.6435859,9.7225984 4.70869167,9.88546058 4.83870769,10.0698292 C4.9257109,10.1783388 4.90381346,10.3410054 4.78455064,10.4278131 C4.75209551,10.4497106 4.70869167,10.4604638 4.6543391,10.4604638 M8.74466282,11.2307843 C8.64710192,11.2307843 8.56029423,11.1764317 8.51689038,11.089624 C8.48423974,11.1330279 8.42988718,11.1656785 8.36478141,11.1764317 C8.22401218,11.1981337 8.09380064,11.111326 8.07190321,10.9703612 C8.01774615,10.6991849 7.93093846,10.4387619 7.80072692,10.1892875 C7.73581667,10.0698292 7.779025,9.9071625 7.90923654,9.84205673 C8.02869487,9.77695096 8.19136154,9.82035481 8.25646731,9.95056635 C8.39743205,10.2107939 8.49499295,10.4929189 8.56029423,10.7859926 C8.58199615,10.7640952 8.61445128,10.7425888 8.64710192,10.7208869 C8.89657628,10.6123772 9.14624615,10.471217 9.40647372,10.3085503 C9.52573654,10.2326913 9.67765,10.2651465 9.75370449,10.3846048 C9.82975897,10.5038676 9.79710833,10.6557811 9.67765,10.7316401 C9.39572051,10.9052554 9.12434872,11.0571689 8.85317244,11.1764317 C8.80976859,11.2307843 8.77731346,11.2307843 8.74466282,11.2307843 M6.10817244,11.4912074 C6.07552179,11.4912074 6.05401538,11.4912074 6.02136474,11.4802587 C5.73943526,11.3826978 5.43560833,11.2198356 5.16423654,11.035467 C5.04497372,10.9594125 5.02327179,10.7967458 5.09913077,10.677483 C5.17518526,10.5580247 5.33785192,10.5363228 5.45711474,10.6123772 C5.69603141,10.7750439 5.96720769,10.9160087 6.19498013,11.0030119 C6.32519167,11.0462202 6.39029744,11.1981337 6.34689359,11.3283452 C6.31443846,11.4261016 6.21668205,11.4912074 6.10817244,11.4912074 M7.04135513,11.6321721 L6.99775577,11.6321721 C6.85698654,11.6321721 6.74847692,11.5129093 6.74847692,11.371749 C6.74847692,11.2307843 6.86773974,11.1222747 7.00870449,11.1222747 L7.05230385,11.1222747 C7.31253141,11.1222747 7.57295449,11.089624 7.84413077,11.0245183 C7.98509551,10.9920631 8.11530705,11.0788708 8.14795769,11.2090824 C8.18041282,11.3500471 8.09380064,11.4802587 7.9635891,11.5129093 C7.63806026,11.5995215 7.33423333,11.6321721 7.04135513,11.6321721 M8.20211474,12.9774958 C8.18041282,12.9774958 8.15890641,12.9774958 8.12625577,12.9667426 C7.99604423,12.9231433 7.90923654,12.7821785 7.95264038,12.651967 C8.03944808,12.369842 8.08285192,12.0879125 8.10455385,11.8165407 C8.11530705,11.675576 8.23456987,11.5670663 8.37573013,11.5780151 C8.51689038,11.5887683 8.6254,11.7082266 8.61445128,11.8491913 C8.59274936,12.1528228 8.52764359,12.4675984 8.4408359,12.7821785 C8.40838077,12.9016369 8.31062436,12.9774958 8.20211474,12.9774958 M7.3993391,14.5939958 C7.34518205,14.5939958 7.30177821,14.5832426 7.25817885,14.5507875 C7.13891603,14.474733 7.11740962,14.3118708 7.19307308,14.192608 C7.35593526,13.9538869 7.50784872,13.7044125 7.63806026,13.4549381 C7.70316603,13.3247266 7.85507949,13.2813228 7.97434231,13.3354798 C8.10455385,13.4005856 8.14795769,13.552499 8.09380064,13.6717619 C7.95264038,13.9538869 7.78997372,14.2252587 7.61616282,14.474733 C7.56200577,14.5507875 7.48614679,14.5939958 7.3993391,14.5939958" id="Fill-1" fill="#000001"></path>
                    <path d="M10.2743551,10.2868484 C10.1984962,10.2868484 10.1226372,10.2541978 10.0682846,10.189092 C9.98147692,10.0807779 10.0031788,9.91791571 10.1116885,9.83110801 C10.2201981,9.74449583 10.3394609,9.64673942 10.4587237,9.54917853 C10.5674288,9.46237083 10.7300955,9.47312404 10.8169032,9.58163365 C10.9037109,9.69014327 10.8927622,9.85280994 10.7842526,9.93961763 C10.6649897,10.037374 10.5347782,10.1456881 10.4155154,10.2326913 C10.3830603,10.2651465 10.3285122,10.2868484 10.2743551,10.2868484" id="Fill-3" fill="#000001"></path>
                    <path d="M17.6952593,5.46413365 C17.7941888,5.67822019 18.0495285,5.77167532 18.2636151,5.67274583 C18.4777016,5.57381635 18.5711567,5.32023622 18.4724228,5.10439006 C18.3734933,4.89030353 18.1197176,4.7968484 17.9038715,4.89577788 C17.6899804,4.99470737 17.5963298,5.2482875 17.6952593,5.46413365 Z M18.4057529,8.09554071 L16.7401792,4.48559199 L16.9902401,4.37043494 C17.9885285,3.90824263 19.1649292,4.34169455 19.6251663,5.34193814 C20.0875542,6.34179071 19.6541022,7.51819135 18.6558138,7.97862404 L18.4057529,8.09554071 Z" id="Fill-5" fill="#FFCB00"></path>
                    <path d="M18.4723446,5.10433141 C18.571274,5.32017756 18.4776234,5.57375769 18.2637324,5.67268718 C18.0496458,5.77181218 17.7941106,5.67816154 17.6951811,5.464075 C17.5964471,5.24822885 17.6899022,4.99464872 17.9039888,4.89571923 C18.1196394,4.79678974 18.3734151,4.89024487 18.4723446,5.10433141" id="Fill-7" fill="#000001"></path>
                    <polygon id="Fill-9" fill="#FFCB00" points="15.5619994 5.03062308 17.2277686 8.63881218 16.2977141 9.06874487 14.6321404 5.46055577"></polygon>
                    <path d="M15.0655728,9.53639199 C14.2291689,9.65506827 13.3675439,9.21066763 12.9970471,8.40495929 C12.6247907,7.60101058 12.8459157,6.65668365 13.4774221,6.09536635 L15.0655728,9.53639199 Z" id="Fill-11" fill="#FFCB00"></path>
                    <path d="M13.5438574,4.8525891 L15.581883,3.91002179 L12.6427388,2.82727179 C12.1965785,2.66167244 11.6839439,2.89922051 11.5185401,3.34538077 C11.3548958,3.79134551 11.5924439,4.30573974 12.0384087,4.46938397 L13.3567516,4.95503782 C13.4251811,4.92277821 13.4738638,4.8830891 13.5438574,4.8525891 Z M16.961226,2.19400577 C17.1340593,1.72829423 16.9019856,1.22817244 16.4433125,1.06980705 C15.9973478,0.906162821 15.4829535,1.1437109 15.3191138,1.58987115 L14.9540913,2.58444487 L16.5962035,3.188775 L16.961226,2.19400577 Z M17.2277099,8.63889038 L15.5619407,5.03070128 L14.6320817,5.46043846 L16.2976554,9.06862756 L17.2277099,8.63889038 Z M18.6557356,7.97864359 C19.654024,7.5182109 20.0876715,6.34181026 19.6250881,5.34176218 C19.164851,4.3417141 17.9884503,3.90826218 16.9901619,4.37045449 L16.7402965,4.48561154 L18.4056747,8.09556026 L18.6557356,7.97864359 Z M20.5211234,4.91182949 C21.2189087,6.42470769 20.5623766,8.20895769 19.0496939,8.90869808 L16.0548285,10.2937109 C14.903649,10.8241372 13.5853061,10.5580442 12.7166426,9.73063397 L11.2632003,9.20724615 L11.799101,7.74656987 C11.761367,7.00557628 11.9952003,6.2753359 12.4521138,5.69427179 L11.6804247,5.41019167 C10.7073574,5.05044808 10.2019567,3.95498974 10.5597452,2.98016282 C10.7325785,2.51425577 11.0778542,2.13476538 11.5365272,1.92419808 C11.9932452,1.71206667 12.5078349,1.69407949 12.973742,1.86495769 L13.9665561,2.23193526 L14.3315785,1.23716603 C14.6913221,0.264098718 15.786976,-0.243061538 16.7598478,0.114922436 C17.7331106,0.474470513 18.2385112,1.56992885 17.8805272,2.54475577 L17.6484535,3.17254744 C18.8338478,3.11506667 19.9957804,3.77335833 20.5211234,4.91182949 Z M12.997008,8.40486154 C13.3677003,9.21076538 14.2291298,9.65497051 15.0655337,9.53648974 L13.477383,6.0954641 C12.8460721,6.65678141 12.6247516,7.60091282 12.997008,8.40486154 Z" id="Fill-13" fill="#000001"></path>
                    <path d="M14.6142119,13.9973885 C13.4966606,13.9973885 12.5093208,14.3880231 11.8477054,15.0605872 C11.8150548,14.5072859 11.3810163,14.0949494 10.8277151,14.0949494 C10.2419587,14.0949494 9.79697147,14.5506897 9.79697147,15.1366417 L9.79697147,24.1632731 C9.79697147,24.749225 10.1768529,25.2047699 10.7518561,25.2047699 C11.3376125,25.2047699 11.7065452,24.749225 11.7065452,24.1632731 L11.7065452,19.183366 C11.7065452,17.1869846 12.7806926,16.0369782 14.5381574,16.0369782 C15.1024074,16.0369782 15.5906029,15.5814333 15.5906029,15.0171833 C15.5906029,14.4531288 15.1675131,13.9973885 14.6142119,13.9973885" id="Fill-15" fill="#FF8B08"></path>
                    <path d="M20.8635641,23.3495487 C18.9105865,23.3495487 17.9668462,22.1234878 17.9668462,19.6064558 C17.9668462,17.1003724 18.9105865,15.8850647 20.8635641,15.8850647 C22.8163462,15.8850647 23.7602821,17.1003724 23.7602821,19.6064558 C23.7602821,22.1344365 22.8163462,23.3495487 20.8635641,23.3495487 M20.8635641,13.9430359 C17.6413173,13.9430359 15.8729038,15.9501705 15.8729038,19.6064558 C15.8729038,23.2736897 17.6413173,25.2915776 20.8635641,25.2915776 C24.0856154,25.2915776 25.8542244,23.2736897 25.8542244,19.6064558 C25.8542244,15.9611192 24.0856154,13.9430359 20.8635641,13.9430359" id="Fill-17" fill="#FF8B08"></path>
                    <path d="M39.1231907,14.0841766 C38.6891522,14.0841766 38.3094663,14.3445997 38.1575529,14.7567407 L35.9116971,21.158026 L34.0779824,14.7784426 C33.9696683,14.4314074 33.6333862,14.0841766 33.1015913,14.0841766 C32.569992,14.0841766 32.2227612,14.4314074 32.1252003,14.7893913 L30.2916811,21.1687792 L28.0458253,14.7676894 L28.0458253,14.7567407 C27.8831587,14.3445997 27.514226,14.0841766 27.0801875,14.0841766 C26.4942356,14.0841766 26.0386907,14.539917 26.0386907,15.1256734 C26.0386907,15.2558849 26.0711458,15.4077984 26.1254984,15.5487631 L29.391149,24.5104843 C29.5540112,24.9228208 29.9227484,25.1832439 30.3567869,25.1832439 C30.8232804,25.1832439 31.2354215,24.879417 31.3550753,24.4344298 L33.0908381,18.4564298 L34.826601,24.4236766 C34.9568125,24.8684683 35.369149,25.1722952 35.8248894,25.1722952 C36.2589279,25.1722952 36.6386138,24.9118721 36.8012804,24.4887824 L40.0669311,15.5270612 C40.1210881,15.3860965 40.1537388,15.234183 40.1537388,15.1039715 C40.1537388,14.539917 39.6979984,14.0841766 39.1231907,14.0841766" id="Fill-19" fill="#FF8B08"></path>
                    <path d="M47.9653753,20.5938542 C47.9653753,22.3732163 47.1408978,23.3603606 45.4483433,23.3603606 C43.5280163,23.3603606 42.6818369,22.1669503 42.6818369,19.6172676 C42.6818369,17.1111843 43.5280163,15.8960721 45.4158881,15.8960721 C47.0974939,15.8960721 47.8027087,17.2955529 47.9544266,17.5993798 L47.9544266,20.5938542 L47.9653753,20.5938542 Z M48.9959234,8.51839583 C48.410167,8.51839583 47.9653753,8.97413622 47.9653753,9.55989263 L47.9653753,14.9087324 C47.5205837,14.3878862 46.511542,13.9430946 45.3615356,13.9430946 C43.1700324,13.9430946 40.6203497,14.9304343 40.6203497,19.6065144 C40.6203497,21.4726843 41.0760901,22.9048157 41.9330228,23.870258 C42.768449,24.8141939 43.9945099,25.2916362 45.5459042,25.2916362 C46.9238785,25.2916362 47.9870772,24.8792997 48.8008016,24.1089792 C49.6688785,23.2845016 50.0378112,22.0693894 50.0378112,20.5829054 L50.0378112,9.55989263 C50.0268625,8.97413622 49.5711221,8.51839583 48.9959234,8.51839583 Z" id="Fill-21" fill="#FF8B08"></path>
                    <g id="Group-25" transform="translate(51.028846, 14.023157)">
                        <mask id="mask-2" fill="white">
                            <use xlink:href="#path-1"></use>
                        </mask>
                        <g id="Clip-24"></g>
                        <path d="M8.88171731,0.0610195513 C8.42617244,0.0610195513 8.08969487,0.299740705 7.916275,0.733583654 L5.08446731,7.66646827 L2.25285513,0.733583654 C2.07923974,0.299740705 1.73200897,0.0610195513 1.28721731,0.0610195513 C0.701265385,0.0610195513 0.245720513,0.516759936 0.245720513,1.10251635 C0.245720513,1.28708045 0.289124359,1.41729199 0.321579487,1.49315096 L0.332332692,1.52560609 L3.99956667,10.2378529 C3.13168526,12.3859522 2.67594487,13.4708529 0.99414359,13.4708529 C0.440842308,13.4708529 0.00680384615,13.9048913 0.00680384615,14.4581926 C0.00680384615,15.0114939 0.440842308,15.4455324 0.99414359,15.4455324 C3.09903462,15.4455324 4.43360513,14.4038401 5.4534,11.9519138 L9.83660192,1.52560609 L9.85830385,1.47144904 C9.89075897,1.39539455 9.93416282,1.27613173 9.93416282,1.08081442 C9.92340962,0.516759936 9.46766923,0.0610195513 8.88171731,0.0610195513" id="Fill-23" fill="#FF8B08" mask="url(#mask-2)"></path>
                    </g>
                    <g id="Group-28" transform="translate(0.000000, 8.353285)">
                        <mask id="mask-4" fill="white">
                            <use xlink:href="#path-3"></use>
                        </mask>
                        <g id="Clip-27"></g>
                        <path d="M8.47350609,15.1699179 L4.74116635,10.1900109 L6.96532019,8.16117436 C7.37765673,7.78129295 7.41030737,7.14137949 7.03042596,6.72904295 C6.65074006,6.31670641 6.01043558,6.28425128 5.59829455,6.66393718 L2.06146763,9.88618397 L2.06146763,9.76692115 L2.06146763,1.13072885 C2.06146763,0.544776923 1.61667596,0.0892320513 1.03072404,0.0892320513 C0.444967628,0.0892320513 -1.95512821e-05,0.544776923 -1.95512821e-05,1.13072885 L-1.95512821e-05,15.7232192 C-1.95512821e-05,16.3091712 0.455720833,16.764716 1.03072404,16.764716 C1.61667596,16.764716 2.06146763,16.3091712 2.06146763,15.7232192 L2.06146763,12.631184 L3.23317596,11.5570365 L6.85681058,16.3850301 C7.05212788,16.6562064 7.36670801,16.7864179 7.67073045,16.7864179 C7.88755417,16.7864179 8.09382019,16.7213122 8.27818878,16.5803474 C8.72278494,16.2548186 8.80978814,15.6147096 8.47350609,15.1699179" id="Fill-26" fill="#FF8B08" mask="url(#mask-4)"></path>
                    </g>
                </g>
            </g>
        </g>
    </g>
</svg>