<?xml version="1.0" encoding="UTF-8"?>
<svg width="47px" height="55px" viewBox="0 0 47 55" version="1.1" xmlns="http://www.w3.org/2000/svg" xmlns:xlink="http://www.w3.org/1999/xlink">
    <!-- Generator: sketchtool 52.2 (67145) - http://www.bohemiancoding.com/sketch -->
    <title>B151407B-9A0B-4C4C-9B60-9A04BCDE3BFF</title>
    <desc>Created with sketchtool.</desc>
    <g id="Administrar-cuenta-de-usuario" stroke="none" stroke-width="1" fill="none" fill-rule="evenodd">
        <g id="03" transform="translate(-536.000000, -656.000000)" fill="#108EE9" fill-rule="nonzero">
            <g id="Group-7" transform="translate(504.000000, 614.000000)">
                <g id="shield" transform="translate(32.000000, 42.000000)">
                    <polygon id="Shape" points="21.1016317 30.7132031 14.0394053 24.0903223 11.0313351 27.2037305 21.3464163 36.8772852 37.0636592 19.6366113 33.8177827 16.7643652"></polygon>
                    <path d="M41.3788464,7.00304687 C36.0904087,6.06933594 31.220231,3.22394531 28.7878681,1.61100586 C27.1985673,0.557089844 25.3503073,0 23.442732,0 C21.5351567,0 19.6867876,0.557089844 18.0975959,1.61089844 C15.6652329,3.22383789 10.7950553,6.06933594 5.50661761,7.00304687 C2.37446512,7.55605469 0.101075867,10.225918 0.101075867,13.3513574 L0.101075867,26.318252 C0.101075867,30.6019141 1.31758445,34.7776172 3.71658254,38.729668 C5.59351887,41.821377 8.19401449,44.7762305 11.4458879,47.5121582 C16.9136889,52.1125 22.3280625,54.5113379 22.5557286,54.6112402 L23.442623,55 L24.3295173,54.6112402 C24.5572924,54.5114453 29.971557,52.1125 35.439358,47.5121582 C38.6911224,44.7762305 41.2918361,41.821377 43.1686634,38.729668 C45.5678795,34.7777246 46.78417,30.6019141 46.78417,26.318252 L46.78417,13.3514648 C46.7843881,10.225918 44.5109989,7.55605469 41.3788464,7.00304687 Z M42.4214434,26.3183594 C42.4214434,32.7045898 39.1467815,38.7121582 32.6881754,44.1744531 C28.9338666,47.3496289 25.1222051,49.4192187 23.4429501,50.2591504 C19.5828769,48.3268457 4.46402059,39.88875 4.46402059,26.3183594 L4.46402059,13.3514648 C4.46402059,12.3100098 5.22617842,11.4194824 6.27629889,11.2340723 C12.3515364,10.1614648 17.8169386,6.97844727 20.5338841,5.17676758 C21.4003889,4.60206055 22.4062409,4.29827148 23.442732,4.29827148 C24.479223,4.29827148 25.4851841,4.60206055 26.3515799,5.17666016 C29.0686344,6.97844727 34.5339276,10.16125 40.6091651,11.2338574 C41.6591765,11.4192676 42.4214434,12.3097949 42.4214434,13.35125 L42.4214434,26.3183594 Z" id="Shape"></path>
                </g>
            </g>
        </g>
    </g>
</svg>